<?xml version="1.0" encoding="utf-8"?>
<!-- Generator: Adobe Illustrator 22.1.0, SVG Export Plug-In . SVG Version: 6.00 Build 0)  -->
<svg version="1.1" id="Layer_1" xmlns="http://www.w3.org/2000/svg" xmlns:xlink="http://www.w3.org/1999/xlink" x="0px" y="0px"
	 viewBox="0 0 1021 122" style="enable-background:new 0 0 1021 122;" xml:space="preserve">
<style type="text/css">
	.st0{enable-background:new    ;}
	.st1{fill:#393E41;}
</style>
<title>WB Flashback</title>
<desc>Created with Sketch.</desc>
<g id="Page-1">
	<g id="_x31_366" transform="translate(-168.000000, -105.000000)">
		<g id="top" transform="translate(165.000000, 97.000000)">
			<g class="st0">
				<path class="st1" d="M115.6,25.5c-1.3,3-2.4,12.1-2.6,15.2c-0.8,1.8-1,2.3-1.8,3.7l-6.1,38c-1.3,1.6-1.1,3.5-0.5,5.4l-5.1,27
					c-2.3,4.2,3.8,14.7-12.7,14.2c-0.2,0.1-1,0.1-11.8-1l-2.1-2.4l-6.8-43.2c-0.4-3.6-2.1-6.1-5.7-7.9c-4.4,3.3-6,11.3-6.6,16.9
					c-0.6-0.6-1-0.9-1.2-0.9l-0.4,0.1c-1.1,1.4-1.6,2-1.6,1.9l0.1,0.4c4.4,0.5,2.9,2.7,1.8,7.1c-0.4,1.8,0.2,1.4-1.1,2.7l0.7,0.7
					l-3.2,22.1c-2.1,2.2-5.2,3.6-9.7,3.4c-4.2,0.2-8.2-0.2-12.2-1c-1.3-0.3-2.6-2.2-4-5.7c1-2.4-1.8-8.2-1.4-9.8
					c-3.4-20.7-3.1-21.5-4.5-25.5c-0.4-1.4-1.1-4.1-0.6-5.3c1.4,0.7,3.5-1.3,4.8-2.4c-1.5-2-3.5,0-5.2,0l-0.7-0.8
					c-1.2-9.6-8.9-51.7-9.2-52.8c-1-2.8-1.8-6.3-1.1-9.1c-1.2-1.5-1.2-4.3,0.1-5.7c5.6-2.7,13.5-1.8,19.4-0.7l4.5,5.1
					c0,9.6,2.3,22.5,4.5,38c-1.1,0.4-1.6,0.9-1.6,1.5c0,0.5,2.8,3.1,2.4,4.2c2.2,3.7,2,5.9-3.3,8.9c0.5,1,2.2,1.5,4.9,1.6
					c5.1-4.2,7.5-8.5,7.3-13c1.5,0.6,3.2-0.9,4.8-2.4l0.1-0.4c0-0.1-0.3-0.6-0.9-1.2c-0.3,1.3-2.3,0.6-2.8,0.7
					c3.2-29.1,2.8-41.5,7.4-43c4.8-0.7,12.7-1.7,18.2,0.2c2.6,2.7,3.6,8.1,3.1,16c2.3,2.7,2.1,7.9,1.6,11.4c0.8,1.6,2.2,4.2,1.6,5.7
					l-0.7,0.9c-1-1.3-2.4-0.7-4.2-0.9L70.2,45c1.6,2.8,8.9,0.4,7.2,5.7c0.3,1.9-0.2,3.2-1.5,4c1,1.2,1.2,1.4,2.7,3
					c1.2,1.8-1,7.2,3,7.5c1,1.8,1.8,0.9,3.8-0.5c0.6-0.5,0.9-0.4,1.7,0.5c1.2-0.3,1.1-1,0.5-2c-0.8-1.2-0.1-6.3,0.2-7.8
					c0.4-2.2,1-4.3,1.8-6.5l-0.7-1l4.8-35.6c4.6-5.9,15.2-1.9,20.2-3.4C120.5,13.4,115.2,20.1,115.6,25.5z M9.1,23.8l-0.7,0.8
					c1.2,1.2,1.3,0.8,1.5,0.9l0.1-0.3C10.1,25.1,9.8,24.6,9.1,23.8z M25.4,66.2c-1.6-0.7-2.8,1.2-4.1,1.6c0.6,1.1,1.9,0.7,2.6,0.8
					c0-0.2,1.7-1.3,1.7-2.1L25.4,66.2z M24.6,97.1h-0.7l0.7,0.7V97.1z M26.3,108.4h-1.7l1.7,0.8V108.4z M27.4,43.8h-1.2V45h1.2V43.8
					z M27,60.4l1.7,1.7l0.9-1C28.8,60.1,27.7,60.5,27,60.4z M30.3,68.6l-2.4,2.3c0.8,0.3,1.2,0.2,3.2-1.5L30.3,68.6z M30.3,56.4
					l-0.7,0.7l1.5,1.7L32,58L30.3,56.4z M30.3,90.6l-0.7,0.7l0.7,0.7l0.8-0.7L30.3,90.6z M30.3,83.2l0.8,0.8
					c0.4-0.1-0.1,0.4,1.6-0.8C32.6,82.6,30.6,82.1,30.3,83.2z M34.4,87.3l-0.8,0.7l0.8,0.9l0.9-0.9L34.4,87.3z M35.6,74.2
					c-1.7,0-1.8,2.6-0.3,3.4c0-0.2,1.6-1.5,1.6-2.3C36.4,74.9,35.8,74.2,35.6,74.2z M37.7,81.6c-1.1-0.4-1.6,0.1-3.3,1.6
					c0.6,1.1,1.8,0.7,2.3,0.8C38,83.4,37.6,82.1,37.7,81.6z M38.1,88.5h-1.4v1.2h1.4V88.5z M38.4,72.6v0.9l0.9-0.9H38.4z M40,96.1
					c-0.4,0.1,0.1-0.5-1.6,1H40V96.1z M40.5,77.1h-1.2v1.2h1.2V77.1z M40.8,69.5L40,70.2c0.8,0.6,1.2,0.9,1.2,0.9l0.4-0.1
					C41.7,70.8,41.9,70.6,40.8,69.5z M45.1,84L40,86.4l0.8,1c0.4-2.3,4.2-1,4.2-2.7L45.1,84z M40,91.4c0.1,0.4-0.4-0.2,0.8,1.7
					c3.7-1.8,7.2-1.7,7.3-1.7C46.5,90.8,43.4,90.2,40,91.4z M42.9,101.5h-1.2v1.2h1.2V101.5z M42.4,79.9c0.1,0.1,1.1,1,1,1
					c0.2,0,0.8-0.3,1.5-1C44.5,78.8,43.1,78.7,42.4,79.9z M45.7,65.3c0,0.1-1.6,1.5-1.6,2.1v0.4h1.6c1.4-3.1,6-0.3,7.4-3.3
					C50.2,59.8,49.1,67.5,45.7,65.3z M45,98.7l-0.9,0.8c0.7,0.6,1.1,0.9,1.2,0.9h0.4v-0.3C45.7,100,45.5,99.6,45,98.7z M49,70.9
					c-0.4-0.6-1.2-0.9-2.4-0.9c-1.1,0-1.6,0.5-1.6,1.5c0,0.8,0.4,1.2,1.2,1.2c1.4,0,2.1,0,2-0.1c0.6-0.7,0.9-1.1,0.9-1.2V70.9z
					 M49,44.3l-1.6,1.5l0.7,1c0.3-0.1,0,0.4,1.7-1C49.8,45.6,50.1,45.6,49,44.3z M48.2,79.9c2.1,1.2,4.9,1.4,7.3,0
					C54.8,78.8,49.1,77.5,48.2,79.9z M51.5,73.5c-2.2,0.9-2,2.7-0.3,2.7c0.8,0,1.5-0.3,2-1L51.5,73.5z M50.7,88.1
					c-1.4,0.7-1,2.1,0,2.6l0.7-1C51.3,89.4,51.8,89.9,50.7,88.1z M53.9,29.5h-3.1l3.1,0.7V29.5z M52.2,59.7
					c-1.3-1.3-1.1-0.8-1.5-0.9l1.5,1.6V59.7z M57.2,47.4c-1.8,0.1-3.4-0.4-4,0.9c0.3,0.3,1.4,0.9,3.1,1.5
					C57.5,49.4,57.1,47.7,57.2,47.4z M53.9,61.2l1.6,2.6c1.1-0.1,3.7,0.6,5-1.6C59.8,61.5,56.6,61.3,53.9,61.2z M58.2,71.3
					c-0.7-0.6-1-1-1-1.1l-0.9,1.7c0.7,1,1.9,0.7,2.5,0.7v-0.1C58.8,71.9,58.6,71.5,58.2,71.3z M57.2,57.1l0.7,0.9
					c0.4-0.1-0.2,0.4,1.7-0.9C59.4,56.7,57.5,56.1,57.2,57.1z M60,28.4h-1.2v1.2H60V28.4z M60,43.8h-1.2V45H60V43.8z M60.8,49.5
					h-1.2v1.2h1.2V49.5z M61.2,30.3l4,3.3l1-0.7L61.2,30.3z M64,64.1c-1,0.6-1.9,1.5-2.8,2.7c2.7,1.8,5.9-2.7,7.8-2.4h0.3
					C68,62.8,65.8,63.1,64,64.1z M64.1,53.9c-1.4,0-1.6,1.8-0.4,2.6l1.6-1.7C64.5,54.1,64.1,53.9,64.1,53.9z M65.2,49.8l-1.6,1.6
					l0.9,0.9c0.2-0.1,0.1,0.3,1.7-0.9C66.1,51.3,66.4,51.1,65.2,49.8z M64.5,72.6c-1.2,0.6-1.4,3.4,0.9,3.4c1.6,0,2.7-0.9,3.2-2.6
					C67.7,72.2,66.2,72.7,64.5,72.6z M65.7,42.9h-1.2v1.4h1.2V42.9z M69.2,84.9c-1,0-1.5,0.4-1.5,1.3v0.1c1.4,1.3,1.4,0.9,1.7,1
					c0.6-0.8,0.9-1.2,0.9-1.2C70.2,85.3,69.9,84.9,69.2,84.9z M73.4,59.4c-1.4-0.5-3.3-1.2-4.8-0.6l2.3,2.3c3-1.2,4,3.2,5.7-0.7
					C76.2,60.3,75.3,60,73.4,59.4z M70.2,56.4l0.7,0.7l0.3,0.1c0.2,0,0.7-0.3,1.4-0.9C71.8,55,70.5,55.3,70.2,56.4z M71.4,90.5
					l-0.4,0.1l0.8,1.5l0.9-0.7C71.9,90.8,71.5,90.5,71.4,90.5z M72.6,66.9l1.6,1.7l0.8-0.8C74.7,66.6,73.2,67,72.6,66.9z M75.9,94.6
					c-0.2-0.2-1.5-1.8-2.1-1.8L73.4,93c-0.2,0.5-0.1,0.6-0.1,0.8c0,1.4,0.9,1.8,2.3,1.8c0.1,0,0.3,0,0.4-0.1V94.6z M79.1,86.4
					c-1.1-0.4-2.4,0.1-3.4,0.7c-1.6,0.7-1.9,0.8-2.3,1c1,1.3,2.4,0.7,4,0.9c0.1-0.1,1.8-1.4,1.8-2.1L79.1,86.4z M74.2,70.9l0.8,1
					c0.3-0.1,0.2,0.4,1.6-1C76.5,70.4,74.5,70,74.2,70.9z M78.3,74.2c0,2-3.9,2.7-4.1,3.4c1.8,1.8,2.8-0.4,4.8-1
					C79,75.6,79.4,74.9,78.3,74.2z M75,102.8l0.9,0.7c0.5,0.2,0.4,0.1,0.6,0.1c0.5,0,1.3-0.6,2.6-1.8C77.7,99.9,76.4,102.5,75,102.8
					z M77.8,65.3c-0.6,0-1,0.3-1.2,0.9l1.7,1.6c0.6-0.7,0.9-1.2,0.9-1.3C79.2,65.7,78.8,65.3,77.8,65.3z M79.1,91.4
					c-1,0.3-1.2,2.6,0.7,2.6c0.3,0,1.2-0.6,2.6-1.8C82,91,80.4,91.5,79.1,91.4z M80.7,106.1c-0.2,0-1.7-0.6-2.3,0.7
					c0.7,0.6,1.1,0.9,1.2,0.9l0.4-0.1C81,106.1,80.6,106.4,80.7,106.1z M88.1,74.2c-1.1,2.9-4.1,0.8-5.7,2.4l2.4,1.7l-3.1,1.6
					c2.3,1.6,8.2,1.5,8.3-1.9C90,77.5,88.2,74.7,88.1,74.2z M82.4,101.8l0.7,1.7l0.9-0.7C82.5,101.5,82.7,101.9,82.4,101.8z
					 M84,88.9h-0.9l2.6,1.7L84,88.9z M84.5,114.4h-1.4v1.4h1.4V114.4z M85.7,69.5v0.7l0.7-0.7H85.7z M87.1,95.4h-0.7l0.7,0.7V95.4z
					 M87.6,101.8c-0.7,0-1.1,0.3-1.2,1c0.7,1,1.7,0.7,2.4,0.7C88.8,103.4,89.1,101.8,87.6,101.8z M87.1,78.3v-1.2h1.4v1.2H87.1z
					 M89.7,84.9h-0.9l0.9,0.7V84.9z M90.9,68.1h-1.2v1.3h1.2V68.1z M93.3,56h-1.2v1.2h1.2V56z M92.8,80.7v0.9l1-0.9H92.8z
					 M95.7,27.5h-1.2v1.3h1.2V27.5z M97.1,85.6c-0.6,0.1-1.9-0.3-2.6,0.7c1.4,1.3,1.3,0.9,1.6,1c0.6-0.8,1-1.2,1-1.2V85.6z
					 M97.8,60.4l-0.7,0.7l0.7,1l0.7-1L97.8,60.4z M98.3,73.8h-1.2v1.4h1.2V73.8z M99.9,101.5h-1.4v1.2h1.4V101.5z M107.1,45.4h-1.2
					v1.2h1.2V45.4z"/>
				<path class="st1" d="M204.6,96c-0.2,21.5-5.3,27.5-20,31.3c-0.7-1-3.1,0-4.1,0.4l-26.4-0.2c-0.8,0.6-10.3,0.6-10.7,0.7
					c-2.4,2.4-5.1-0.8-7.3-0.8c-2.7-2.3-0.3-4.8-0.8-7.7c0-0.3,0.1-0.2,0.4,0.2l-0.5-100.2c-1.9-3.2,0.5-6,0.9-9l3.2-1.8l32,1l1,0.9
					c0.9-0.5,1.9-0.6,2.9-0.6c-0.5,0,1.7,0.3,7.8,1.3c8,1.5,13,5.5,15.6,10.2c3,4.7,3.1,13.1,3.2,18.6c0.2,9-1.8,17.7-8.3,23.9
					c-0.2,0.5-0.3,1-0.4,1.4c0,1.6,3.4,3.5,4.7,3.9c4.7,7.7,6.3,17.4,6.7,26.5L204.6,96z M144.4,55h-1l1,0.8V55z M147.2,26.7H146
					v1.2h1.2V26.7z M146,63.3l0.8,0.7c1.9-0.1,3.8,0.3,4.9-0.7C151,62.6,147.5,61.9,146,63.3z M148.3,47.7c-1,0-1.5,0.4-1.5,1.3v0.1
					c0.6-0.1,1.8,0.3,2.5-0.7C149.1,47.9,148.8,47.7,148.3,47.7z M148.4,100.2l-0.7,0.9l0.7,0.7l0.9-0.7L148.4,100.2z M150.1,75.6
					l-1.7,1.6l0.9,0.8c0.8-0.1,1.8,0.3,2.4-0.8L150.1,75.6z M150.5,85.1h-1.2v1.2h1.2V85.1z M151.7,91.9c-0.3,0.1-2-0.3-2.4,0.9
					c0.8,0.6,1.2,1,1.2,1l0.4-0.1c0.5-0.9,0.7-1.3,0.7-1.4V91.9z M150.5,118.7h-1.2v1.3h1.2V118.7z M151,31.2l0.7,0.7
					c0.6-0.1,2.1,0.3,2.4-0.7C154,30.6,151.3,29.8,151,31.2z M151.7,46c2.1,1.6,2.3,1.9,3.3,1.5c0.6-0.6,0.9-1,0.9-1.2
					C155.9,44.6,152.5,44.6,151.7,46z M152.4,68.1l1,0.9c0.3-0.1,0,0.4,1.6-0.9C154.7,67.6,152.9,67.2,152.4,68.1z M153.4,106.8
					l0.7,0.7l0.4,0.1c0,0,0.4-0.3,1.2-0.9C155.4,105.6,153.7,105.6,153.4,106.8z M154.4,54.9l-0.3,0.1l0.9,1.7l0.7-0.9
					C155.1,55.2,154.6,54.9,154.4,54.9z M156.4,78c-0.4,0-1.2,0.5-2.3,1.6c1.3-0.1,3,0.3,3.3-0.7C157.3,78.3,156.9,78,156.4,78z
					 M177.9,98.5c2.7-3,1.7-5.7,1.7-11.4l0.9,0.9l0.8-0.9l-0.8-0.8l-0.9,0.7c-0.7-1.1-1.4-2.2-2.1-3.3c-1.2-1.7-3.6-6.9-8.5-7.3
					l0.9-0.7c-1.5-1.2-1.4-0.8-1.7-0.9l0.8,2.5c-2.1,0-5.1,3.8-6.6,0l-0.8,0.8c2.2,2.7,1.5,2.7,1.8,3.3c-4,4,2,17-7.6,16.5l1,0.7
					c1.3-1.5,2.5-2.2,3.4-2.2c1,0,1.8,0.5,2.3,1.5c0,2.5-3.5,3.5-4.1,5c4.2,0.4,5.5,6,8.3,7.3h0.6c5.7,0.2,8.3-6.2,11.7-9.9l2.4,0.9
					v-0.4C181.5,99.6,178.5,99.6,177.9,98.5z M156.7,115.8l-1-0.7l1,1.6V115.8z M157.4,74.7l0.9,0.9c0.4-0.1-0.2,0.4,1.7-0.9
					C159.7,74.2,158,73.7,157.4,74.7z M178.1,45.7c-0.6-5.8-2.4-13.4-7.5-16.2c1.9-2.5,3.6,1.6,5.7,0.7l0.1-0.3
					c0-0.1-0.3-0.6-0.9-1.3c-2.4,0-6.2-2.7-8.9,0.1c-4.8,1.8-4.4,8.3-7.5,10.8c1.9,0.1,2.7,1.8,2.5,4.9c0.2,0.5,0.1,0.6,0.1,1.1
					c-0.1,2.3-1.3,3.9-3.5,4.6c2.6,0,4.6,1.9,5.8,5.7l-4,1.6l-0.1,0.4c0,0.2,0.3,0.6,0.9,1.2c1.5,0.7,4.2-1.4,5-1.7
					c0.4-0.1,4.3,1.2,8.5-3.5c1.6-2.1,3.5-5.5,4.7-7.9L178.1,45.7z M159,60.7h-0.7l0.7,0.9V60.7z M160,16.4l0.7,0.9
					c0.6-0.1,2,0.3,2.6-0.9C163,15.8,160.6,15.1,160,16.4z M163.3,67.3c-0.6-1.2-2-0.8-2.6-0.9l2.6,2.6V67.3z M164.9,73.9l-2.5-1.6
					l2.5,2.4V73.9z M166.3,68.1c-1,0-1.5,0.5-1.5,1.5l0.1,0.1c1.8,1.3,1.3,0.7,1.7,0.9c0.5-0.8,0.7-1.3,0.7-1.3
					C167.3,68.5,167,68.1,166.3,68.1z M173.3,70.3c-2.4,0.3-1.9,1.8-2,2c2.3,2.1,2.3,0.6,4.2-1.9c0.3-0.4,0.5-0.6,0.8-0.6
					C176,70.1,173.8,70.3,173.3,70.3z M173.5,59.6h-1.2v1.2h1.2V59.6z M175.6,59.1c-0.5,0.2,0-0.5-1.7,0.9l0.7,0.7
					C176,59.3,175.5,59.4,175.6,59.1z M177.2,110.8c-0.5,0.1-1.9-0.3-2.6,0.9c0.8,0.6,1.2,1,1.4,1l0.3-0.1
					C177.6,110.8,177.1,111.2,177.2,110.8z M178.9,75.6c-0.1,0-1.5,0-1.4,0c-2.5,0-1.8,1.3-1.9,1.6c0.5,1,2.1,0.8,2.3,0.8
					C179.2,77.4,178.8,76.1,178.9,75.6z M176.8,20.1h-1.2v1.2h1.2V20.1z M182.2,32.8c-2,0.1-2.9-0.4-4.2,0.7c0.8,1.4,2,0.8,3.4,1
					C182.5,33,182.1,33.1,182.2,32.8z M180.5,23.8l-0.4-0.1c-0.1,0-0.5,0.3-1.2,1l0.7,0.9C180.7,24.1,180.5,23.9,180.5,23.8z
					 M181.3,17.2h-1.7l1.7,0.7V17.2z M181.7,58.6h-1.2V60h1.2V58.6z M180.5,63.3l0.8,0.7c1.9-0.1,3.1,0.4,4.2-0.7
					C185.2,62.9,181.4,61.9,180.5,63.3z M183.3,72.8h-1.2v1.2h1.2V72.8z M182.9,40.2l0.9,0.9c0.3-0.1,0.2,0.3,1.7-0.9
					C185.2,39.6,183.6,38.8,182.9,40.2z M186.2,87c-0.3-1.1-2.1-1-2.4,0c0.3,1.1,2.1,0.8,2.4,0.9V87z M186.2,102.8
					c-0.3-0.1-0.2,0.4-1.6-1l-0.8,1c0.3,0.9,2.1,0.7,2.4,0.7V102.8z M185.8,25.1h-1.2v1.2h1.2V25.1z M184.6,60l0.9,0.7h0.3
					c0,0,0.5-0.2,1.3-0.7C186.6,59,185.2,58.7,184.6,60z M198.5,87h-2.4l2.4,0.9V87z"/>
				<path class="st1" d="M332.7,27.9c-2,2.9-3.1,5.6-6.7,5.6c-0.4,0-2.5-0.3-4.2-0.4c-8.8-0.7-5.8,0.1-13.5-0.8
					c-3.1-0.3-7.7-1.8-13.5,5.4c0.3,1.3-2.3,14.8,6.7,19.7c7.1,0,19.5-4.7,22.9,4c-0.4,7.9,0.3,8.6-0.8,13.2
					c0.8,0.8,0.9,1.3,0.5,2.2c-0.5,1.1-1.2,2.1-1.4,2.7c-4.9,2.8-13.6,0.8-17.9,0.4c-5.3,0.4-7.3,1.1-10,6.2c1.2,2,1.3,5-0.4,7.7
					c1.8,31,2.8,18,0.7,31.8c-1.5,4.3-7.8,3.1-14.4,3.2c-9.7-1.5-14,0.4-11.5-10.9c0.8-3,0.9-3.9,1.6-5.1l-2.3-99
					c3.6-7.4,6.1-4,7.3-4c0.2,0,0.6-0.3,1-0.9c29.6,0.6,41,1.3,39.2,0.8c5.3,0,10.1-2.3,14.9,0.8c0.3,1.9,3,4,0.8,5.7
					c0.5,1.5,0.9,3.3,1,5.4V27.9z M273,62.4c-1.3,0-2,0.5-2,1.5V64c0.1,0.1,0.4,0.1,0.8,0.1c0.3,0,1.2-0.6,2.5-1.8
					C274.2,62.4,272.9,62.4,273,62.4z M275.1,51.7c1.3,1,1,1.9,4.2-0.9C278.2,49.8,276.3,50.8,275.1,51.7z M278.4,80.4l-0.8,1.7
					l0.4,0.1c0.1,0,0.6-0.3,1.3-0.9L278.4,80.4z M281.1,93.3c-2-1.2-2.2-2-3.5-0.5l1.7,1.7c0.6-0.1,2.1,0.3,2.4-0.9
					C281.5,93.6,281.3,93.5,281.1,93.3z M281.2,44.3l-0.4,0.1l0.8,1.5l0.9-0.7C281.8,44.6,281.4,44.3,281.2,44.3z M280.9,107.5
					l0.8,0.9h0.4c0,0,0.4-0.3,1.2-0.9C283,106.3,281.3,106.4,280.9,107.5z M282.6,53.4l-0.9,1.6l1.6-1.6H282.6z M283,80.1h-1.3v1.2
					h1.3V80.1z M283.3,40.2l-0.7,0.9l1.7,1.6l0.7-0.9L283.3,40.2z M283.3,74.7l-0.7,0.9l0.7,0.7l1-0.7L283.3,74.7z M285,65.7
					l-0.7,0.7l0.7,0.9l0.9-0.9L285,65.7z M285,51.7c1.4,1.4,1.8,0.8,4.2-0.5c0.3-0.2,0.5-0.3,0.7-0.3
					C288.4,49.7,285.8,49.8,285,51.7z M287.2,36.9c-1,0-1.5,0.4-1.5,1.3l0.1,0.3c1.6,1.3,1.3,0.8,1.7,0.9c0.4-0.6,0.7-1.1,0.7-1.5
					C288.3,37.3,287.9,36.9,287.2,36.9z M287.5,70.6l-1,0.8l1,0.9l0.7-0.9L287.5,70.6z M288.3,58.3c-1.1,0.3-1.2,2.1,0,2.4l0.9-0.7
					v-0.4C289.1,59.4,289,59.2,288.3,58.3z M288.3,29.2l-0.7,0.3c2.1,2.3,4.3,2.5,4.8,1.7C291.9,30.8,289.6,29.7,288.3,29.2z
					 M289.4,64.8c-0.8,0-1.2,0.5-1.2,1.4c0,0.5,0.3,0.9,0.9,1.2l1.7-1.6C290,65.1,289.5,64.8,289.4,64.8z M294.4,79.2h-1.2v1.2h1.2
					V79.2z M296.5,21.3l-0.4,0.1c-0.2,0-0.2-0.2-1.2-1l1.6,1.7V21.3z M295.6,27.9l-0.7,0.7l0.7,0.9l0.9-0.9L295.6,27.9z M294.9,69.7
					v0.9l0.7-0.9H294.9z M297.3,74.7l-2.4,1.6l0.7,0.9c0.1-0.1,1.8-1.4,1.8-2.1L297.3,74.7z M297.3,16.4v0.9l0.9-0.9H297.3z
					 M297.3,63.2V64l0.9-0.9H297.3z M303.1,27.9h-1l1,0.7V27.9z M303.9,62.4c0.8,0.4,2.5,2.9,4.1,0.7
					C307.6,62.7,305.8,62.6,303.9,62.4z"/>
				<path class="st1" d="M394.9,127.3c-0.9-0.1-37,1.4-37.1,1.4c-1.3-1.9-2.8,0.4-3.9,0.2c-0.6,0.1-2.6-1.8-6.2-4.9
					c1.8-35.9,0.4-37.2,2.1-40.9c-0.9-17.7-0.5-34.7-1.1-49.6c0-4.5-0.9-12.6-0.7-17.9c-0.1-2.7,1.5-4.9,4.8-6.5
					c2.1-0.4,9.2,0.1,11.3,0.3c10.4,1.1,11.6-1.7,11.6,7.9c0,1.3,0.3,2.4,1,3.3c-1.9,13.8-1.5,14.7-1.1,21.2l-1.2,1.7l1.2,44.2
					c-2.2,2.8,1.8,5.4-0.7,7.3c1.3,1.6,1.1,4.4,0.1,5.9c1.5,1.7,3,2.9,4.5,3.7c3.6,2,4.5,0.7,25-0.6c2.8,0,7.3,2.1,8.1,4.9
					c-1.9,3.8,0,10.5,0,13.2C412.7,132.2,398.6,127.7,394.9,127.3z M352.3,76.2c-0.9,0-1.5,0.3-1.8,0.9l1,1c0.7-0.3,0.1,0.9,3.1-1.7
					C355.1,76.1,354,76.2,352.3,76.2z M355.4,65.7l0.7,0.7c0.9,0.4,1.6,0.1,3.3-1.7C358.9,63.8,356.8,64.5,355.4,65.7z M358.7,93.5
					l-0.9,1.6l0.3,0.1c0.1,0,0.6-0.3,1.3-0.9L358.7,93.5z M359,105.8c-0.3,0-0.7,0.3-1.2,0.9l1.6,1.6h0.7c0.9,0,1.5-0.3,1.8-0.9
					C361.2,107.4,359.8,105.8,359,105.8z M362.7,120.6H362l0.7,0.8V120.6z M364,66h-1.2v1.3h1.2V66z M364,87.3h-1.2v1.3h1.2V87.3z
					 M364.4,54.1h-0.7l0.7,0.9V54.1z M368.2,50.6h-1.3v1.2h1.3V50.6z M367.7,64.8h-0.9l0.9,1V64.8z M368.2,103.8h-1.3v1.2h1.3V103.8
					z M370.6,78.3h-1.2v1.3h1.2V78.3z M371,105h-0.9l0.9,0.8V105z M374,112.4c-1,0-1.5,0.4-1.5,1.3l0.1,0.3h2.4
					C374.9,113.4,375.5,112.4,374,112.4z M385.7,114l-0.8,0.7l0.8,1l0.9-1L385.7,114z M388.1,105.8v-1.2h1.4v1.2H388.1z"/>
				<path class="st1" d="M500.1,125.6c-2.5,4.3-8.8,2.9-11.4,3.1c-2.2-2.5-4.1-1.5-8.3-0.1c-6.4,2.1-7.3-9-9.6-16
					c-6-1.6-14.3-1.9-17.3,3.6c-2.3,8.6-2.1,12.7-10,12.7c-1.5,0-7-0.4-8.6-0.4c-2.5,0-6.1,2-9.6-4.5c0.8-1.7,1-2.2,1.5-4
					c6.8-35.6,6.9-32.3,6.9-39.8c4.9-18.4,6-32,12.1-64.4c2.2-11.9,14.5-3.7,21.9-6.7c-0.1,0,0.3-0.1,1.2-0.1
					c10-0.3,8.8,0.5,11.8,7.3c0,4.4,2,9.5,0.8,14c3.1,3.3,2.2,4.1,11.4,57.8c3,3.5,2.5,7,2.6,7.3l-0.9,0.8l1.4,1.6
					c0.2,6,3.8,16.6,4.5,25.9L500.1,125.6z M439.1,102l-0.9,0.8c1.4,1.1,1.5,0.8,1.6,0.9l0.1-0.3C440,103.3,439.7,102.8,439.1,102z
					 M442,56.9h-1.2V58h1.2V56.9z M443.9,107.7l1.6,1.7l0.9-1C445.7,107.4,444.5,107.7,443.9,107.7z M448.1,91.4l-0.9,0.9
					c0.8,0.6,1.2,1,1.3,1l0.3-0.2v-0.3C448.8,92.6,448.6,92.2,448.1,91.4z M449.3,84.5h-1.2v1.2h1.2V84.5z M449.6,76.8l-0.7,0.8
					l1.7,1.6l0.7-0.9L449.6,76.8z M451,100.8h-1.4v1.2h1.4V100.8z M451.7,42.9h-1.2v1.2h1.2V42.9z M452.9,71.1
					c-0.3,0-1.7-0.6-2.3,0.8c0.7,0.6,1.2,0.9,1.3,0.9l0.3-0.1c0.6-0.6,1-1,1-1.2L452.9,71.1z M454.6,85.6c-0.9,0.1-2.7-0.6-4,1.7
					c0.3,1.3,1.9,0.7,3.3,0.9C454.8,87.5,454.5,86.1,454.6,85.6z M454.6,30.3c-0.7-1.4-2.1-0.7-2.4-0.7c0.1,0.3-0.6,1.7,1.8,1.7
					l0.6-0.1V30.3z M452.1,38.4l0.7,0.9c0.7-0.1,1.9,0.4,2.6-0.9C455.1,37.8,452.7,37.3,452.1,38.4z M452.1,102l2.4,2.4l1.7-1.6
					C455.4,101.6,453.8,102.1,452.1,102z M453.8,49c-1.2,0.3-1.3,2.1,0,2.4l0.7-0.7v-0.3C454.6,50.4,454.3,49.9,453.8,49z
					 M455.4,110.1c-0.5,0.1-1.9-0.3-2.6,0.9c0.9,0.6,1.3,1,1.4,1l0.3-0.2c0.6-0.7,0.9-1.1,0.9-1.2V110.1z M469.7,86.7l-1.4-20.5
					l1.7-1.7l-1.8,0.1c-1.5-4.3-1.7-7.8-1.3-10.6c-1.8-2.7-3.8-1.6-4.2-1.7c-2,1.6-2.8,3.5-2.4,5.7c-4.8,4.5,0.7,16-6.4,17.9
					l-0.1,0.3c0,1.3,3,1.5,3.3,2.1c-3.1,4.7,3.6,11.6-3.1,13.9l0.7,0.7c2-2.2,7.5-1.5,11.4-1.6c0.4,0.1,0.7,0.7,0.9,1.6v-0.7
					c2.4-2.4,3.4-3,3.4-4.5C470.3,87.5,470.1,86.7,469.7,86.7z M459,44.6c-1.7,2.4-1.9,3.7-3.6,2.1c0.6-1.8,4.1-1.7,4.8-2.6
					C459.8,44.2,459.6,43.9,459,44.6z M459.5,33.4c-1.4,0-2.5,0.3-3.3,1l1.6,1.6c0.3-0.5,1.6-0.7,3.7-0.7c1.2,0,1.8-0.6,2-1.7
					C463.8,33.5,462.5,33.4,459.5,33.4z M457,105.3l-0.7,1.7l0.7-0.9V105.3z M457,25.4l0.9,0.9l1.7-1.6
					C458.8,24.7,457.7,24.3,457,25.4z M463.6,102.5c-2.4-1.5-3.9-3.8-5.8-3.8c-1.2,0.6-1.1,2,0,2.6c0.4-0.4,1-0.6,1.7-0.6
					c2.9,0,4.3,6.4,6.4,2.1C465.7,102.8,464.8,103.3,463.6,102.5z M460.3,18h-1.7l1.7,1V18z M461.2,39.3l1.5,1.7
					c0.3-0.1,0,0.4,1.6-0.9C463.3,39,461.6,37.5,461.2,39.3z M463.6,26.2l-0.9,0.7c1.3,1.2,1.5,0.9,1.6,1l0.1-0.3
					C464.4,27.4,464.2,27,463.6,26.2z M462.7,46.7l1.6,2.3l0.9-0.9L462.7,46.7z M463.6,95.5v0.8l0.7-0.8H463.6z M468.3,41l-0.3-0.1
					c-0.2,0-0.6,0.3-1.2,0.9l0.7,0.7c0.6-0.6,0.9-1,0.9-1.3L468.3,41z M477.3,100.4c-1.6-2.6-5.7-2.1-8.1-0.7l0.7,0.7
					c2.9-1.8,4.7,0.5,7.3,0.9V100.4z M470.9,54.7H470l0.9,0.7V54.7z M470,109.4v0.7l0.9-0.7H470z M470.9,70.8v0.3
					c0.6-0.1,1.8,0.3,2.4-0.9C473,69.1,470.9,69.1,470.9,70.8z M474,74.2l-0.1,0.2c-0.2,0-0.7-0.3-1.3-1l-1,0.7
					c0.6,1.2,2.1,0.9,2.4,1V74.2z M474,44.1c-0.3,0.1-0.3-0.3-1.5,0.9l0.7,0.7c0.6-0.7,0.9-1.2,0.9-1.3L474,44.1z M473.2,92.2
					c0.6,1.8,2.2,2.1,5.8,3.4C478.7,94.6,476.5,93.3,473.2,92.2z M474.5,57.6h-1.2v1.2h1.2V57.6z M473.3,87.3
					c2.6,0.4,4.9,2.7,7.3,0.9C477.8,87.7,475.7,85.3,473.3,87.3z M475,79.2l-1,0.7l1,1l0.7-1L475,79.2z M480.6,107.7l1.7,1.7
					c0.6-0.8,0.9-1.2,0.9-1.4C483.2,106.4,480.9,106.4,480.6,107.7z M485.6,79.2l-0.9,0.7l0.9,1l0.7-1L485.6,79.2z"/>
				<path class="st1" d="M586.7,98.8c-0.6,8.1-2.6,14.8-9.2,21.2c-1.8,1.7-3.7,2.8-5.9,3.4c-0.9,0.9-2.5,2-4.2,3.1
					c-2.1,1.5-6.8,2.3-14.1,2.6c-2-0.1-4-0.3-6.2-0.6c-2.2-0.2-4.4-0.7-6.6-1.4c-4.4-0.9-8.8-2.2-12.4-4.9
					c-6.1-4.4-12.4-17-12.6-23.6c0.1-5,1.2-8,3.3-8.9c4.4,1.1,15.7-2.7,20.9,3c0.3,6.3,3.4,10.2,8.6,13.8c3.8,2.5,5.5-1.9,8.9,0.7
					c1.3-0.9,1.8-2.2,1.5-3.9c0.6-0.2,1.2,0.6,3.3-1.7c-3-2.2-0.8-4.3-0.8-7.4c0.1-4.7-13.5-14.3-17.6-17.4c0.7-2.7,0.4-4.7-4.5-5.3
					c-11.9-8.4-22.4-19.7-21.2-34.1c-0.2-10.7,3.5-17.4,10-22.3c6.8-5.2,15.3-6,23.9-5.9c14.7-0.3,27.7,4.7,31,18.9
					c1.2,4.5,2.3,5.8,2.4,8.9c-0.2,9.9-13.7,7.1-23.1,4.5l-1.7-6.2l0.7,0.7l1.7-1.8c-3.2-2.1-6.8-3.9-12.7-5.5
					c-1.7,0.5-3.7,2.7-4.8,4.1c-4.5-1-6.7-7.2-9.6-2.3c3.4,2.3,8.5,3.1,7.7,6.3c-0.1,0.3-0.2,0.6-0.5,0.8c0.4,5.7,6.3,8.3,12,16
					l-0.7,0.9l1.5,1.5c0.4-1.2,1.9-0.7,3.2-0.8l16.8,14.4c4.3,1.6,3.4,7.8,7.8,10.3c2.6,6.2,3,10.8,2.6,15.2c0.4,1,0.6,2.2,0.6,3.6
					L586.7,98.8z M527.9,44h-1.2v1.2h1.2V44z M530,29.8c0.3,1.3,2.9,1.3,3.9,0H530z M533.6,105.4h-1.2v1.2h1.2V105.4z M534.8,47.6
					l-1,1.5l1-0.7V47.6z M538.4,111.7h-1.2v1.2h1.2V111.7z M541.1,117l-0.8,0.7l0.8,1l0.9-1L541.1,117z M542,54.7h-0.9l0.9,0.7V54.7
					z M544.4,63.4l-2.4,2.4l3.1-2.4H544.4z M544,49.5h-1.2v1.2h1.2V49.5z M549.5,58.3h-1.2v1.2h1.2V58.3z M554.3,16.8h-1.2V18h1.2
					V16.8z M554.7,117l1.5,1.7l0.9-1C556.4,116.7,555.4,117.1,554.7,117z M556.7,64.6h-1.2v1.2h1.2V64.6z M560.3,114.6l-0.7,0.8
					l0.7,0.9l0.7-0.9L560.3,114.6z M561,79.5l0.9,0.7c1.3-0.1,2.8,0.3,3.1-0.7C564.6,78.9,561.8,78.4,561,79.5z M566.7,101.8
					c-0.6-1.1-2.7-1.2-3.3,0c0.3,0.6,0.7,1,1.3,1c1.4,0,2.1,0,2-0.1V101.8z M565.6,93.5h-1.2v1.2h1.2V93.5z M566.7,76.2l-0.9-0.7
					l0.9,1.6V76.2z M567,116.5h-1.2v1.2h1.2V116.5z M578.8,101.8c-1.5,0-2.3-0.2-2.4-0.7l-0.9,0.7c0.3,0.6,0.7,1,1.3,1
					c1.4,0,2.1,0,2-0.1V101.8z"/>
				<path class="st1" d="M671.6,127.2c-3.9,1.3-10.7,0.7-12.6,1c-6.3,0.9-5.8,1.3-10.3-1.2c-2.5-7.3-1.9-25.7-1.4-29.6
					c0.7-5.1,1.3-4.3-0.1-13.3c-5.8-8.2-15.4-5.1-17.1,2.3l0.7,2.4c-1.4-0.9-3.5,2-4,2.6c0.7,0.2,2.6,3.4,4,2.4
					c-0.5,3.3,0.8,6.6-0.7,9.7c1.3,3.7,1.1,5.6,0,8.9c1.1,3.6,1.2,9.2,0.1,13.9c-5.1,5.4-12.8-0.7-18.8,2.3c-0.4-0.1-3.1,0.5-5-2
					c-0.5-0.8-0.4-0.9-2.3-4.5c2.6-1.9-1.5-2.8,0.7-5l-0.4-0.4c0.7-17.9,1.4-25.4,1.4-25.3c-0.5-6.1,0.3-6.7-0.7-15.4
					c0-11.4-1-19.4,0.7-32.9c-1.5-6.7-0.7-13.2,0-20.3c-3.3-3.8-0.6-7.3-1-10.5c4.3-6.1,13.1-2.1,18.8-3.4l4.9,0.9l2.1,3.1l0.3,20.4
					c-2.1,1.6-3.1,2-3.3,3.4l0.9,0.7c0.4-1,2.1-0.7,2.4-0.7c-2.7,3.3,2.1,6.1-0.9,8.9c2.5,3.5,4.2,7.6,8.9,7.4
					c2.7,0.4,7-2.1,11.4-0.1l2.6-2.4c-2.1-3.7-5.2,0-7.3,0c2-2.6,2.6-8.1,3.2-10.5c-2-3.1-2.2-6.1-0.7-8.9
					c-0.9-6.8-2.9-16.1,1.5-21.2c4.6-1.5,7.4-0.8,10.7-0.9c4.1,2.6,7.6-1.1,11.4,1.8c1,0.8,1.6,1.9,1.5,3.1
					c-0.5,30.8-1,40.1-0.6,49.7c0,1.7-1.4,11.6-0.9,10.6l1.5,47.2C672.6,122.3,672.1,124.2,671.6,127.2z M607.3,86.5h-1l1,0.8V86.5z
					 M609.6,29.5H608l1.6,0.9V29.5z M610.9,69h-1.2v1.2h1.2V69z M613.8,29.5c-0.3,0.1-0.2-0.3-1.7,0.9l0.9,0.8
					C614.1,29.4,613.6,29.9,613.8,29.5z M612.9,97.9l-0.9,0.7c1.8,1.4,1.3,0.8,1.7,1C613.6,99.2,614.2,99.7,612.9,97.9z M617.9,77.7
					c0.3,0-1,0.4-4.2,1.5c2-0.2,4.1,0.4,5.7-0.7C619.2,78.2,618.4,77.7,617.9,77.7z M617.8,46.7h-1.7l1.7,0.7V46.7z M617.8,84.9H617
					l0.7,0.9V84.9z M617.8,73.5c2.2,1.6,3,1.3,5,0C622.2,72.4,618.6,71.5,617.8,73.5z M618.7,89.8h-0.9l0.9,0.8V89.8z M620,105.3
					c-1,0-1.5,0.5-1.5,1.4l0.1,0.3c0.6-0.1,1.8,0.3,2.4-0.9C620.9,105.5,620.5,105.3,620,105.3z M620.3,56.4
					c-1.2,1.8-1.5,2.6-1.5,2.4c0,0.4,0.2,0.7,0.7,0.9c1.7-0.1,3.4,0.4,4-0.9C623,58.3,621.5,56.4,620.3,56.4z M619.5,53.1l0.9,0.9
					c0.6-0.1,1.6,0.3,2.4-0.9C622.4,52.5,620,51.9,619.5,53.1z M621.8,94.6h-1.5l0.7,1.7c0.6-0.8,0.9-1.2,0.9-1.4L621.8,94.6z
					 M622.2,43.8h-1.2V45h1.2V43.8z M626.2,66.7c-1.5-0.4-3.6-1-5.1-0.7c3.6,3.2,7.4,2.6,8.1,2.6l0.9-1
					C629.5,67.5,628.6,67.4,626.2,66.7z M621.8,81.6l-0.7,1.6h1.7C622.6,82.8,623.2,83.4,621.8,81.6z M621.1,99.6l1.7,1.6l0.7-0.9
					C623.2,99.3,622.2,99.7,621.1,99.6z M623.5,49l1.6,1.7l1-0.7C625.4,48.7,624,49.1,623.5,49z M624.4,41.8l0.7,0.7
					c0.4-0.1-0.2,0.4,1.7-0.7C626.6,41.3,624.7,40.6,624.4,41.8z M625.1,61.3l-0.7,0.8c1.5,1.2,1.4,0.8,1.7,0.9
					C625.9,62.7,626.5,63,625.1,61.3z M628.4,84.2c-0.6-1.3-1.9-0.9-2.3-1l2.3,1.7V84.2z M628.4,58c-0.4,0-0.5-0.1-0.8,0.2
					c-0.1,0.1-0.4,0.3-0.8,0.6l0.7,0.9C628.7,58.2,628.3,58.3,628.4,58z M628.7,76.6c-1.3,0-1.9,0.6-1.9,1.8
					c1.9,1.9,3.4-0.5,4.9-0.9C631,77,630,76.6,628.7,76.6z M627.8,31.2h-0.3l0.9,1.6l0.8-0.9C628.3,31.5,627.9,31.2,627.8,31.2z
					 M636.5,74.4c-4.3-3-5.6-4-8.1-1.7c0.7,4.4,5.7-3.7,7.4,2.4L636.5,74.4L636.5,74.4z M629.2,112.7h-0.8l0.8,0.7V112.7z
					 M629.2,52.3l0.9,0.8l1.6-1.5C631.5,51.6,629.9,50.9,629.2,52.3z M630.8,60.4c0.3,0.6,0.9,0.9,1.8,0.9c0.1,0,3.2-0.8,5.6-2.6
					c1.3-1,2-2,2.3-3C637.7,53.6,635.2,61.3,630.8,60.4z M634.8,54l-0.7,1.7c0.3-0.1,0,0.4,1.7-1L634.8,54z M634.1,67.8l0.7,1
					c1.1,0,3.6,1.6,4.7,1.6c0.6,0,1.3-0.3,2-0.9C639,68,636.5,65.9,634.1,67.8z M646.1,62.1c-1.4-0.3-5.6-0.5-5.6,1.9
					c0,0.1,0.3,0.6,1,1.4c0.7,0.3,3.3,0.3,4.7-0.7c0.8-0.6,1.4-1.4,1.8-2.6H646.1z M641.5,58.8l0.7,0.9c1.3-0.1,3,0.4,3.3-0.9
					C645.1,58.2,642.5,57.4,641.5,58.8z M643.4,72.3h-1.2v1.2h1.2V72.3z M646.3,75.9c-0.1,0.1,0.8,0.1,2.7,0.1
					c1.1,0,1.8-0.3,2.3-0.9C650.1,74,647,74.2,646.3,75.9z M646.3,69.5l1.7,2.4l0.9-0.8C646.4,68.7,646.7,69.7,646.3,69.5z
					 M648.8,93c0.5,0.2,2.3,1.7,3.4,1.7c0.4,0,0.8-0.2,1.3-0.7C652.8,91.8,649.9,91.9,648.8,93z M654.5,80.9c-1.5,0.8-3.4-1.4-5-0.8
					c-2.3,4.3,2.7-0.2,4,2.4C654.8,81.2,654.5,81,654.5,80.9z M652,98.7h-1.7l1,1.7c0.6-0.7,0.9-1.2,0.9-1.4L652,98.7z M652.4,110.5
					h-1.2v1.2h1.2V110.5z M652,54.7l0.9,1l3.1-2.6C655.5,52.6,653.6,52.6,652,54.7z M653,44.1l-0.1,0.1l0.7,1.6l1-0.9
					C653.8,44.4,653.3,44.1,653,44.1z M653.6,75.2l1,0.7l0.3,0.1c0,0,0.4-0.3,1.2-0.9C655.8,74.1,654.5,73.7,653.6,75.2z M654.5,107
					h-1l1,0.7V107z M655.3,40.2l-0.7,0.7c1.1,1.1,1.4,0.8,1.5,0.9l0.1-0.3C656.2,41.4,655.9,41,655.3,40.2z M655.7,62.6h-1.2v1.2
					h1.2V62.6z M655.3,67l0.7,0.7l0.4,0.1c0.1,0,0.5-0.3,1.2-0.9C657.4,65.9,655.6,65.8,655.3,67z M657,51.6
					c1.9,1.9,3.1-0.5,4.8-0.9C661.3,50.1,657.8,49.2,657,51.6z M658.6,37.7l-0.9,0.9l0.9,0.7l0.7-0.7L658.6,37.7z M658.6,90.6
					l-0.9,0.9l0.9,0.7l0.7-0.7L658.6,90.6z M660.3,58.8l-1,0.9l1,0.7l0.7-0.7L660.3,58.8z M661,65.4c-1.2,0.3-1.2,2,0,2.3l0.7-0.7
					l0.1-0.4C661.9,66.5,661.6,66.2,661,65.4z M663,90.2h-1.3v1.3h1.3V90.2z M666.2,98.4H665v1.2h1.2V98.4z"/>
				<path class="st1" d="M762,96c-0.3,22.1-5.9,27.6-20,31.3c-0.7-1-3,0-4.1,0.4l-26.4-0.2c-0.8,0.5-6.2,0.5-10.7,0.7
					c-2.3,2.3-5.1-0.8-7.3-0.8c-2.7-2.3-0.3-4.8-0.8-7.7c0-0.3,0.1-0.2,0.4,0.2l-0.5-100.2c-1.9-3.2,0.5-5.9,0.9-9l3.2-1.8l32,1
					l1,0.9c0.9-0.5,1.9-0.6,2.9-0.6c-0.5,0,1.7,0.3,7.8,1.3c9.8,1.8,16.8,7.8,18.1,17.9c1.6,12.6,1.6,26.1-7.5,34.8
					c-0.2,0.5-0.3,1-0.4,1.4c0,1.6,3.4,3.5,4.7,3.9c4.7,7.7,6.3,17.5,6.7,26.5L762,96z M701.8,55h-1l1,0.8V55z M704.6,26.7h-1.2v1.2
					h1.2V26.7z M703.4,63.3l0.8,0.7c2-0.1,3.8,0.3,4.9-0.7C708.4,62.6,704.9,61.9,703.4,63.3z M705.7,47.7c-1,0-1.5,0.4-1.5,1.3v0.1
					c0.6-0.1,1.8,0.3,2.5-0.7C706.5,47.9,706.2,47.7,705.7,47.7z M705.8,100.2l-0.7,0.9l0.7,0.7l0.9-0.7L705.8,100.2z M707.5,75.6
					l-1.7,1.6l0.9,0.8c0.8-0.1,1.8,0.3,2.4-0.8L707.5,75.6z M707.9,85.1h-1.2v1.2h1.2V85.1z M709.1,91.9c-0.3,0.1-2-0.3-2.4,0.9
					c0.8,0.6,1.2,1,1.2,1l0.4-0.1c0.5-0.9,0.7-1.3,0.7-1.4V91.9z M707.9,118.7h-1.2v1.3h1.2V118.7z M708.4,31.2l0.7,0.7
					c0.6-0.1,2.1,0.3,2.4-0.7C711.2,30,708.7,29.8,708.4,31.2z M709.1,46c2.1,1.6,2.3,1.9,3.3,1.5c0.6-0.6,0.9-1,0.9-1.2
					C713.3,44.6,709.9,44.6,709.1,46z M709.8,68.1l1,0.9c0.3-0.1,0,0.4,1.6-0.9C712.1,67.6,710.3,67.2,709.8,68.1z M710.8,106.8
					l0.7,0.7l0.4,0.1c0,0,0.4-0.3,1.2-0.9C712.8,105.6,711.1,105.6,710.8,106.8z M711.8,54.9l-0.3,0.1l0.9,1.7l0.7-0.9
					C712.4,55.2,712,54.9,711.8,54.9z M713.8,78c-0.4,0-1.2,0.5-2.3,1.6c1.3-0.1,3,0.3,3.3-0.7C714.7,78.3,714.3,78,713.8,78z
					 M735.3,98.5c2.7-3,1.7-5.7,1.7-11.4l0.9,0.9l0.8-0.9l-0.8-0.8L737,87c-1.9-3-2.7-3.9-4.2-6.6c-1.6-2-3.9-3.8-6.4-4l0.9-0.7
					c-1.5-1.2-1.4-0.8-1.7-0.9l0.8,2.5c-2.2,0-5.1,3.8-6.6,0L719,78c2.2,2.7,1.6,2.7,1.8,3.3c-4,4,2,17-7.6,16.5l1,0.7
					c1.3-1.5,2.5-2.2,3.4-2.2c1,0,1.8,0.5,2.3,1.5c0,2.5-3.5,3.5-4.1,5c4.2,0.4,5.5,6,8.3,7.3c0.5-0.1,3.7,0.8,7.3-3.5l5-6.4
					l2.4,0.9v-0.4C738.9,99.6,735.9,99.6,735.3,98.5z M714.1,115.8l-1-0.7l1,1.6V115.8z M714.8,74.7l0.9,0.9
					c0.4-0.1-0.2,0.4,1.7-0.9C717.1,74.2,715.4,73.7,714.8,74.7z M735.5,45.7c-0.6-5.8-2.4-13.4-7.5-16.2c1.9-2.5,3.6,1.6,5.7,0.7
					l0.1-0.3c0-0.1-0.3-0.6-0.9-1.3c-2.4,0-6.2-2.7-8.9,0.1c-1.8,0.7-3.2,2.3-4.2,4.8c-1.2,3.2-2.3,5.2-3.3,5.9
					c1.9,0.1,2.7,1.8,2.5,4.9c0.5,1.3,0.1,4.6-3.4,5.7c2.6,0,4.6,1.9,5.8,5.7l-4,1.6l-0.1,0.4c0,0.2,0.3,0.6,0.9,1.2
					c1.5,0.7,4.3-1.4,5-1.7c0.4-0.1,4.3,1.2,8.5-3.5c1.6-2.1,3.5-5.5,4.7-7.9L735.5,45.7z M716.4,60.7h-0.7l0.7,0.9V60.7z
					 M717.4,16.4l0.7,0.9c0.6-0.1,2,0.3,2.6-0.9C720.1,15.2,718,15.1,717.4,16.4z M720.7,67.3c-0.6-1.2-2-0.8-2.6-0.9l2.6,2.6V67.3z
					 M722.3,73.9l-2.5-1.6l2.5,2.4V73.9z M723.7,68.1c-1,0-1.5,0.5-1.5,1.5l0.1,0.1c1.8,1.3,1.3,0.7,1.7,0.9
					c0.5-0.8,0.7-1.3,0.7-1.3C724.7,68.5,724.4,68.1,723.7,68.1z M730.7,70.3c-2.4,0.3-1.9,1.8-2,2c2.3,2.2,2.3,0.6,4.2-1.9
					c0.3-0.4,0.5-0.6,0.8-0.6C733.4,70.1,731.1,70.3,730.7,70.3z M730.8,59.6h-1.2v1.2h1.2V59.6z M733,59.1c-0.5,0.2,0-0.5-1.7,0.9
					l0.7,0.7C733.3,59.3,732.9,59.4,733,59.1z M734.6,110.8c-0.5,0.1-1.9-0.3-2.6,0.9c0.8,0.6,1.2,1,1.4,1l0.3-0.1
					C735,110.8,734.5,111.2,734.6,110.8z M736.3,75.6h-0.7c-0.3,0.1-2.8-0.3-2.6,1.3v0.3c0.5,1,2.1,0.8,2.3,0.8
					C736.6,77.4,736.2,76.1,736.3,75.6z M734.1,20.1H733v1.2h1.2V20.1z M739.6,32.8c-2,0.1-2.9-0.4-4.2,0.7c0.8,1.4,2,0.8,3.4,1
					C739.9,33,739.5,33.1,739.6,32.8z M737.9,23.8l-0.4-0.1c-0.1,0-0.5,0.3-1.2,1l0.7,0.9C738.1,24.1,737.8,23.9,737.9,23.8z
					 M738.7,17.2H737l1.7,0.7V17.2z M739.1,58.6h-1.2V60h1.2V58.6z M737.9,63.3l0.8,0.7c1.8-0.1,3.1,0.4,4.2-0.7
					C742.6,62.9,738.8,61.9,737.9,63.3z M740.7,72.8h-1.2v1.2h1.2V72.8z M740.3,40.2l0.9,0.9c0.3-0.1,0.2,0.3,1.7-0.9
					C742.6,39.6,741,38.8,740.3,40.2z M743.6,87c-0.3-1.1-2.1-1-2.4,0c0.3,1.1,2.1,0.8,2.4,0.9V87z M743.6,102.8
					c-0.3-0.1-0.2,0.4-1.6-1l-0.8,1c0.3,0.9,2.1,0.7,2.4,0.7V102.8z M743.2,25.1H742v1.2h1.2V25.1z M742,60l0.9,0.7h0.3
					c0,0,0.5-0.2,1.3-0.7C743.9,59,742.6,58.7,742,60z M755.9,87h-2.4l2.4,0.9V87z"/>
				<path class="st1" d="M852.3,125.6c-2.5,4.3-8.8,2.9-11.4,3.1c-2.2-2.5-4.1-1.5-8.3-0.1c-6.4,2.1-7.3-9-9.6-16
					c-6-1.6-14.4-1.9-17.3,3.6c-0.4,1.5-0.8,2.9-1.1,4.2c-1.5,5.8-2.1,9.1-10.8,8.5c-7-0.4-6.7-0.4-8.3-0.2c-3,0.4-5.5,0.1-8-4.7
					c0.8-1.7,1-2.2,1.5-4c6.8-35.6,6.9-32.3,6.9-39.8c4.4-16.6,10.8-57.4,12.1-64.4c2.3-11.9,14.3-3.6,21.9-6.7
					c-0.1,0,0.3-0.1,1.2-0.1c10-0.3,8.8,0.5,11.8,7.3c0,3.9,1.9,9.8,0.8,14c3.2,3.4,1.9,3.6,11.4,57.8c3,3.5,2.5,7,2.6,7.3l-0.9,0.8
					l1.4,1.6c0.2,5.5,3.9,17.2,4.5,25.9L852.3,125.6z M791.3,102l-0.9,0.8c1.4,1.1,1.5,0.8,1.6,0.9l0.1-0.3
					C792.1,103.3,791.8,102.8,791.3,102z M794.1,56.9h-1.2V58h1.2V56.9z M796.1,107.7l1.6,1.7l0.9-1
					C797.9,107.4,796.6,107.7,796.1,107.7z M800.3,91.4l-0.9,0.9c0.8,0.6,1.2,1,1.3,1L801,93v-0.3C801,92.6,800.7,92.2,800.3,91.4z
					 M801.4,84.5h-1.2v1.2h1.2V84.5z M801.7,76.8l-0.7,0.8l1.7,1.6l0.7-0.9L801.7,76.8z M803.1,100.8h-1.4v1.2h1.4V100.8z
					 M803.8,42.9h-1.2v1.2h1.2V42.9z M805,71.1c-0.3,0-1.7-0.6-2.3,0.8c0.7,0.6,1.2,0.9,1.3,0.9l0.3-0.1c0.6-0.6,1-1,1-1.2L805,71.1
					z M806.7,85.6c-0.9,0.1-2.7-0.6-4,1.7c0.3,1.3,1.9,0.7,3.3,0.9C807,87.5,806.7,86.1,806.7,85.6z M806.7,30.3
					c-0.7-1.4-2.1-0.7-2.4-0.7c0.1,0.3-0.6,1.7,1.8,1.7l0.6-0.1V30.3z M804.3,38.4l0.7,0.9c0.7-0.1,1.9,0.4,2.6-0.9
					C807.3,37.8,804.9,37.3,804.3,38.4z M804.3,102l2.4,2.4l1.7-1.6C807.5,101.6,806,102.1,804.3,102z M806,49
					c-1.2,0.3-1.3,2.1,0,2.4l0.7-0.7v-0.3C806.7,50.4,806.5,49.9,806,49z M807.6,110.1c-0.5,0.1-1.9-0.3-2.6,0.9
					c0.9,0.6,1.3,1,1.4,1l0.3-0.2c0.6-0.7,0.9-1.1,0.9-1.2V110.1z M821.9,86.7l-1.4-20.5l1.7-1.7l-1.8,0.1
					c-1.5-4.3-1.7-7.8-1.3-10.6c-1.8-2.7-3.8-1.6-4.2-1.7c-2,1.6-2.8,3.5-2.4,5.7c-4.8,4.5,0.7,16-6.4,17.9l-0.1,0.3
					c0,1.3,3,1.5,3.3,2.1c-3.1,4.7,3.6,11.6-3.1,13.9l0.7,0.7c2-2.2,7.5-1.5,11.4-1.6c0.4,0.1,0.7,0.7,0.9,1.6v-0.7
					c2.3-2.3,3.4-3,3.4-4.5C822.5,87.4,822.2,86.7,821.9,86.7z M811.2,44.6c-1.7,2.4-1.9,3.7-3.6,2.1c0.6-1.8,4.1-1.6,4.8-2.6
					C811.9,44.2,811.7,43.9,811.2,44.6z M811.7,33.4c-1.4,0-2.5,0.3-3.3,1L810,36c0.3-0.5,1.6-0.7,3.7-0.7c1.2,0,1.8-0.6,2-1.7
					C816,33.5,814.6,33.4,811.7,33.4z M809.1,105.3l-0.7,1.7l0.7-0.9V105.3z M809.1,25.4l0.9,0.9l1.7-1.6
					C810.9,24.7,809.8,24.3,809.1,25.4z M815.8,102.5c-2.4-1.5-3.9-3.8-5.8-3.8c-1.2,0.6-1.1,2,0,2.6c0.4-0.4,1-0.6,1.7-0.6
					c2.9,0,4.3,6.4,6.4,2.1C817.9,102.8,817,103.3,815.8,102.5z M812.4,18h-1.7l1.7,1V18z M813.3,39.3l1.5,1.7
					c0.3-0.1,0,0.4,1.6-0.9C815.4,39,813.7,37.5,813.3,39.3z M815.7,26.2l-0.9,0.7c1.3,1.2,1.5,0.9,1.6,1l0.1-0.3
					C816.6,27.4,816.3,27,815.7,26.2z M814.8,46.7l1.6,2.3l0.9-0.9L814.8,46.7z M815.7,95.5v0.8l0.7-0.8H815.7z M820.5,41l-0.3-0.1
					c-0.2,0-0.6,0.3-1.2,0.9l0.7,0.7c0.6-0.6,0.9-1,0.9-1.3L820.5,41z M829.5,100.4c-1.6-2.6-5.7-2.1-8.1-0.7l0.7,0.7
					c2.9-1.8,4.7,0.5,7.3,0.9V100.4z M823,54.7h-0.9l0.9,0.7V54.7z M822.2,109.4v0.7l0.9-0.7H822.2z M823,70.8v0.3
					c0.6-0.1,1.8,0.3,2.4-0.9C825.1,69.1,823,69.1,823,70.8z M826.2,74.2l-0.1,0.2c-0.2,0-0.7-0.3-1.3-1l-1,0.7
					c0.6,1.2,2.1,0.9,2.4,1V74.2z M826.2,44.1c-0.3,0.1-0.3-0.3-1.5,0.9l0.7,0.7c0.6-0.7,0.9-1.2,0.9-1.3L826.2,44.1z M825.4,92.2
					c0.6,1.8,2.2,2.1,5.8,3.4C830.8,94.6,828.7,93.3,825.4,92.2z M826.6,57.6h-1.2v1.2h1.2V57.6z M825.5,87.3
					c2.6,0.4,4.9,2.7,7.3,0.9C830,87.7,827.9,85.3,825.5,87.3z M827.1,79.2l-1,0.7l1,1l0.7-1L827.1,79.2z M832.8,107.7l1.7,1.7
					c0.6-0.8,0.9-1.2,0.9-1.4C835.3,106.4,833.1,106.4,832.8,107.7z M837.8,79.2l-0.9,0.7l0.9,1l0.7-1L837.8,79.2z"/>
				<path class="st1" d="M933.9,85c-0.7,8.6-1.1,14.3-2.6,20.4c-2,5.9-5.1,14-10,17.7c-4.3,3.8-4.8,3.2-16.1,6
					c-0.1-0.1-1.8-0.3-5.2-0.6c-19-1.6-12.8-0.1-20.6-4.5c-10.4-5.8-10.1-10.6-12.2-18.4c-0.4-1.4-0.7-2.7-0.9-3.9
					c-1.3-34.7-1.4-45.6-1.9-45.4c0-3.2,3.3-2.1,3.3-4.5c0-0.6-0.8-0.9-2.3-0.7c-0.3-11.1,0.6-24.5,8.6-32.2
					c2.7-2.1,10.4-7.1,10.5-7.2c3.8-2.3,6-2.3,8.6-1.2c6.3-3.1,10.8-0.6,20.6,0v0.6c0-0.1,0.2,0,0.5,0.2c0.3,0.2,0.7,0.7,1.3,1.4
					c5.3,0.2,6.4,4.8,10.7,9.8c1,1.1,1.7,1.8,2.2,2.2c5.4,17.4,6.5,24.1,3.7,33.3c-8.3,0-22.1,4.5-25.6-3.9
					c2.6-3.9-1.7-8.2,0.9-11.9c-0.4-2.3-2.7-4.9-0.9-7.1c-3.2-0.5-7.2-3.5-10.3-4.2c-2.8,4-5.9,9.7-4.7,14.5
					c-2.4,4.9,1.6,10.7-0.9,15c2,1-0.1,2,0.1,3.3c-0.2,2.7,1.3,22.1,0.6,29.2c-0.2,2-0.4,4.3-0.7,7.2c2.6,2.1,3.2,3.2,7.9,7.3
					c2.2-4.7,11.9-2.2,7.3-9.5c3.8-7-2.7-15.3,3.7-21.5l20.9-0.1c2.1,1.8,3.2,4.5,3.3,8.4L933.9,85z M868.3,92.4h-1.7l1.7,1V92.4z
					 M877.9,51.9c-1-1.4-2.2-0.5-3.3,0.8h3.3V51.9z M876.7,38h-1.2v1.2h1.2V38z M878.2,58.6H877v1.2h1.2V58.6z M878.2,107.1H877v1.2
					h1.2V107.1z M879,30h-1.2v1.2h1.2V30z M879,65.1h-1.2v1h1.2V65.1z M881.8,97.9l-0.7,1.7h1.5l0.1-0.4
					C882.6,99.1,882.3,98.7,881.8,97.9z M884.6,22.1h-1.2v1.2h1.2V22.1z M883.4,30.4v0.8l0.7-0.8H883.4z M884.6,73.8h-1.2V75h1.2
					V73.8z M884.6,85.6h-1.2v1.2h1.2V85.6z M887.3,38.4h-2.4l1.7,1.7c0.6-0.8,0.9-1.2,0.9-1.4L887.3,38.4z M888.9,56h-0.9l0.9,0.7
					V56z M891.4,29.7c-0.7,0.1-2-0.5-2.4,0.7c0.6,0.6,1,1,1.2,1l0.3-0.1C891.7,30,891.3,29.9,891.4,29.7z M889.7,109.2h-0.8l0.8,0.7
					V109.2z M894.9,117.4h-1.2v1.2h1.2V117.4z M895.7,105.6h-1.2v1.2h1.2V105.6z M901.8,114.7c-0.8-1.2-2-0.8-2.4-0.9l-0.1,0.4
					c0,1.5,2.3,1.2,2.6,1.2V114.7z M902.5,16.2l3.1,3.1l0.7-0.7L902.5,16.2z M910.2,106.7c-1.6,0-2.3,0-2.2,0.1
					c0.7,0.3,2.6,2.6,3.9,0.7C911.6,107,911.1,106.7,910.2,106.7z M912.8,29.7l0.7,0.7c0.4-0.1-0.2,0.4,1.7-0.7
					C914.9,29.1,913.1,28.6,912.8,29.7z M916.7,29.7l2.4,2.4l0.7-0.9L916.7,29.7z M918.4,86.1c-1.1,0.1-0.1-0.2-1.7,0.8l0.8,0.9
					C918.7,86.2,918.3,86.4,918.4,86.1z M919.1,38.4l-0.7,0.7l0.7,1l0.7-1L919.1,38.4z M918.4,101.2l1.5,1.5l1-0.8
					C920.1,100.7,918.5,101.2,918.4,101.2z M920.8,109.2h-1l1,0.7V109.2z M922,88.8h-1.2V90h1.2V88.8z M924.4,34.1h-1.2v1.2h1.2
					V34.1z M925.1,97.7h-1.2v1.2h1.2V97.7z"/>
				<path class="st1" d="M1025.5,126.9c-3.3,3.2-7-0.4-11.2,1.7c-2.6-1.3-7.1-0.6-8.1-0.6c-0.5,0-0.9,0-1.1,0.1
					c-3.7-0.1-6.1-1.3-7.3-3.5c-0.8-1.9-1.1-3.5-2.9-9.6c-3.6-13.1-3.2-9.7-4.9-13.1c-1.7-3.3-4.5-7.2-2.6-10.6
					c-0.1-0.1-0.5-0.3-1.2-0.7c-2.9-1.6-4.8-3.3-7.8-3.3l-2.4,2.3c5.3,2.9-0.4,9.3,2.4,12.1c-2.3,3.9,1.2,7,0,10.7h-0.3
					c0.2,0-0.5,0.5-2.1,1.6c1.7,0.6,2.5,2.1,2.6,4.6c-0.2,5.3,0,7.2-0.2,6.8l-2.5,2.4c-6.4,0-16.9,3.8-23.4-2.5
					c-1.1-3.7-0.5-8.5,0.2-12.3c0.3-3.2,0.7-5.7,1.2-7.3c-0.7-26.6-0.8-54.5-1.5-52.9c-0.4-1.7,1.1-10.5,0.7-9.9
					c-0.6-20.2-2-23.9-1.5-25c0-4,1.1-6.6,3.2-7.9c6.8,0,17.6-3.6,23.6,2.4c1.3,5.4-2.5,8.6,0,13h-0.3c0.2,0-0.5,0.5-2.1,1.6
					c1.2,1.2,1.7,1.9,2.4,1.7c1.1,2.2-1.6,2.4-2.4,3.1l1.7,1.6l-1.7,1.7c3,1.2,2.4,6.6,5.7,7.3v0.8c-0.9,0-2,0.4-2.4-0.8
					c-0.6,0.3-0.9,0.9-0.9,1.8v0.6c0.7,1,2,2.1,4,3.3c2.7-1.4,1.7-3.7,1.7-4l-0.7-0.9c0.7,0.7,2.3-0.9,3.1-1.7
					c-0.2-0.5-0.3-1-0.3-1.4c0-1.7,2.9-6.1,2.9-8.3c0.3,0,2.6,1,4-1.5l-1.8-1.5c2-2.8,2.5-7.3,4.6-12.8c3.1-8,8.1-6.4,9.8-6.7
					c2.8,1,14.4-2.6,18.1,3.4c-5.7,16.6-21.9,41.4-22.9,52.8c9.9,23,8.8,21.3,9.8,22.5c1.4,1.8,1.7,6.8,4.3,8.9
					c-0.5,1.2-0.1,3.5,2.3,5.7c1.4,6.6,8,12.7,8.6,21.4C1026,125.1,1025.8,126,1025.5,126.9z M959.8,50.7l-0.9,0.9l0.9,0.7l0.7-0.7
					L959.8,50.7z M958.9,65.4c1.8-0.2,3.4,0.5,4-1C962.6,64,959.9,63.5,958.9,65.4z M963.9,44.3l-2.6-0.9l2.6,1.6V44.3z M961.4,72.6
					v0.9l0.9-0.9H961.4z M963,79.2l-0.1-0.1c-0.2,0-0.7,0.3-1.5,0.9l0.9,1c0.6-0.8,0.9-1.2,0.9-1.4L963,79.2z M966.3,93.8h-0.7
					l0.7,0.9V93.8z M966.3,35.2c0.8,0.5,1.6,1,2.4,1.5c0.3,0,0.6-0.2,0.9-0.6C968.2,34.8,967.3,33.8,966.3,35.2z M967.5,57.6h-1.2
					v1.2h1.2V57.6z M967.5,111.3h-1.2v1.2h1.2V111.3z M968.7,41.7c-0.3,0.1,0-0.4-1.6,0.9l0.9,0.8c0.6-0.8,0.9-1.2,0.9-1.2
					L968.7,41.7z M967.9,67.8h-0.9l0.9,0.8V67.8z M971.1,80.9c-1.5,0.7-3.8,1.3-4,3.1c0.4-2.3,4.4-1,4-2.7V80.9z M967.1,88.1v0.7
					c0,0.9,0.3,1.5,0.9,1.8c0.6-1.4,1.6-2.1,3-2.1c2-0.1,3.1-0.3,3.4-0.4C971.3,87,969.9,86.8,967.1,88.1z M974.4,50
					c-0.3,0.2-0.6,0.4-1,0.5c-1,0.2-5.2,0-5.5,0.3c0.9,2.1,4,1.5,4.8,1.6c0.2-0.2,1.7-1.4,1.7-2.1V50z M969.1,99.1h-1.2v1.2h1.2
					V99.1z M969.6,29.5l-0.9,0.9c1.5,1,0.4,0.7,1.7,0.8C970.2,30.8,970.8,31.5,969.6,29.5z M968.7,76.6l0.9,1c0.1,0,0.4,0.2,1.5-1
					C970.9,76.1,969.5,75.5,968.7,76.6z M972,62.9c-2.3,2.3-1.4,2.3-1.6,2.6c4-1.2,7.3-1.4,8.9-3.3C976.8,57,975.2,65,972,62.9z
					 M971.1,96.3l-0.7,0.7c0.7,0.6,1.1,0.9,1.2,0.9l0.4-0.1C971.9,97.7,972.2,97.4,971.1,96.3z M972.4,58.5h-1.3v1.2h1.3V58.5z
					 M975.3,68.6c-1.2-1.3-4.2-1.5-4.2,0.6c0,1.5,2,0.9,3.3,1c0.6-0.7,0.9-1.1,0.9-1.2V68.6z M972,55.7l0.7,0.7
					c0.4-0.1-0.2,0.4,1.7-0.7C974.2,55.1,972.3,54.3,972,55.7z M973.1,72.3H972v1.2h1.2V72.3z M973.1,101.5H972v1.2h1.2V101.5z
					 M974.8,41c-1.8,0-1.6,2.1-0.4,2.4c0.9,0,2.2,0.4,2.4-0.8C976.8,42.4,975.4,41,974.8,41z M973.7,36.9v0.7l0.7-0.7H973.7z
					 M973.7,79.9v1l0.7-1H973.7z M980.8,75.2c0.6-0.2-0.7-0.1-4-0.1c-1.5,0-2.3,0.5-2.4,1.6c2.2,1.6,5.4,1.4,7.3,0
					C981.7,76.5,981.9,76.3,980.8,75.2z M976.8,84.8c-1.1,0-1.7,0.5-1.7,1.5c0,1.5,2,1,2.6,1.1c0.6-0.8,0.9-1.2,0.9-1.4
					C978.6,85.2,978,84.8,976.8,84.8z M976.8,54.7l-0.8,2.4c1.1,0.4,2.3,0.9,3.5,1.3c1.2,0.8,1.9,1.8,2.2,2.9
					c0.6-0.1,3.8,0.6,4.8-1.6C983.1,59,978.6,58.2,976.8,54.7z M978.1,70.9c-1.3,0-2,0.9-2.1,2.6c0.8,0.3,1.2,0.3,3.3-1.6
					C978.7,71.1,978.6,70.9,978.1,70.9z M980.8,81.6c0.7,1,1.8,0.7,2.6,0.7c0.5-0.6,0.7-1,0.7-1.2C984.1,79.9,983.2,79,980.8,81.6z
					 M981.7,66.9c1.1,0.6,1.4,1.9,0,2.6c1.3,0.9,2.9,1.6,4.1,0.7C985.1,69.3,983.7,68.2,981.7,66.9z M984.7,53.1
					c-1,0-1.5,0.4-1.5,1.3l0.1,0.3c0.3,0,1.7,0.2,2.4-0.7C985.6,53.4,985.2,53.1,984.7,53.1z M985,47.4l0.8,1.6l0.7-0.7
					C985.4,47.1,985.3,47.5,985,47.4z M988.2,73.5l-1.6,1.7l0.9,0.7l1.7-1.7L988.2,73.5z M986.5,87.3c0.1,0.1,1.1,1,1,0.9
					c0.2,0,0.7-0.3,1.5-0.9C988.3,85.9,987.1,86.2,986.5,87.3z M987.4,64.5c2.6,1.8,5-2.3,6.9-2.3h0.4
					C992.1,60.9,987.9,61.1,987.4,64.5z M989.1,50.7c-0.6,0.3-1,0.7-1,1.2c0,0.9,0.4,1.4,1.2,1.4c0.8,0,1.8-1.7,2.1-1.7
					C990.9,50.5,989.4,50.7,989.1,50.7z M993.9,70.2c0.2-0.1,0.1-0.1-0.5-0.1c-2.8,0-4.2-0.5-4.2,1.8c0,1.1,1.2,0.9,2.7,0.9
					c1,0,0.6-0.2,1.3-0.9c0.5-0.5,0.7-0.9,0.7-1.2V70.2z M990.6,79.8c-0.8,0-1.3,0.4-1.5,1.1l2.3,1.5c0.6-0.6,1-1,1-1.2
					C992.4,80.2,991.8,79.8,990.6,79.8z M990.6,41h-0.7l0.7,0.7V41z M991.5,46.7l-1.6,1.6c0.3-0.1,0.8,0.1,1.6,0.7l0.8-0.7l0.1-0.3
					C992.4,47.8,992.1,47.4,991.5,46.7z M991.5,90.6l-0.9,0.7l0.9,0.7l0.8-0.7L991.5,90.6z M993.1,86.5l-0.9-0.9l0.9,1.7V86.5z
					 M993.9,82.3l0.9,0.9c0.1,0,0.5,0.2,1.5-0.9C996.1,81.9,994.7,81.2,993.9,82.3z M998.4,56h-1.2v1.2h1.2V56z M997.9,41.7l1,0.9
					c0.1,0,0.2,0.2,1.6-0.9C1000.1,41.2,998.8,40.6,997.9,41.7z M1000.5,90.6l-0.9,0.7c0.7,0.6,1.1,0.9,1.2,0.9l0.4-0.1
					C1001.2,92,1001.4,91.8,1000.5,90.6z M1004.6,99.5c-1.4,0.1-2.9-0.4-3.4,0.9c0.8,1,1.7,0.6,2.4,0.7
					C1005,99.4,1004.4,99.9,1004.6,99.5z M1004.6,43.4l-1-0.8l1,1.7V43.4z M1005.6,88.8c-0.8,0-1.2,0.5-1.2,1.4c0,0.6,0.3,1,1,1.2
					l1.6-1.7C1006.2,89.1,1005.7,88.8,1005.6,88.8z M1006,103.5c-0.1,0-0.4-0.2-1.5,0.9l0.7,0.7c0.6-0.7,0.9-1.1,0.9-1.2L1006,103.5
					z M1005.7,113.7h-1.2v1.2h1.2V113.7z M1010.2,31.2h-0.9l0.9,0.7V31.2z"/>
			</g>
		</g>
	</g>
</g>
</svg>
