<?xml version="1.0" encoding="UTF-8"?>
<svg width="22px" height="22px" viewBox="0 0 22 22" version="1.1" xmlns="http://www.w3.org/2000/svg" xmlns:xlink="http://www.w3.org/1999/xlink">
    <!-- Generator: Sketch 51.2 (57519) - http://www.bohemiancoding.com/sketch -->
    <title>facebook</title>
    <desc>Created with Sketch.</desc>
    <defs></defs>
    <g id="Page-1" stroke="none" stroke-width="1" fill="none" fill-rule="evenodd" fill-opacity="0.85">
        <g id="1366" transform="translate(-1278.000000, -7.000000)" fill="#FFFFFF" fill-rule="nonzero">
            <g id="nav">
                <g id="social" transform="translate(1091.000000, 7.000000)">
                    <path d="M209,2.35714286 L209,19.6428571 C209,20.9441964 207.944196,22 206.642857,22 L202.454018,22 L202.454018,13.2982143 L205.429911,13.2982143 L205.857143,9.97857143 L202.454018,9.97857143 L202.454018,7.85714286 C202.454018,6.89464286 202.719196,6.24151786 204.099107,6.24151786 L205.857143,6.24151786 L205.857143,3.27544643 C205.552679,3.23616071 204.511607,3.14285714 203.29375,3.14285714 C200.759821,3.14285714 199.021429,4.68973214 199.021429,7.53303571 L199.021429,9.98348214 L196.035714,9.98348214 L196.035714,13.303125 L199.026339,13.303125 L199.026339,22 L189.357143,22 C188.055804,22 187,20.9441964 187,19.6428571 L187,2.35714286 C187,1.05580357 188.055804,0 189.357143,0 L206.642857,0 C207.944196,0 209,1.05580357 209,2.35714286 Z" id="facebook"></path>
                </g>
            </g>
        </g>
    </g>
</svg>