<?xml version="1.0" encoding="UTF-8"?>
<svg width="22px" height="22px" viewBox="0 0 22 22" version="1.1" xmlns="http://www.w3.org/2000/svg" xmlns:xlink="http://www.w3.org/1999/xlink">
    <!-- Generator: Sketch 51.2 (57519) - http://www.bohemiancoding.com/sketch -->
    <title>instagram</title>
    <desc>Created with Sketch.</desc>
    <defs></defs>
    <g id="Page-1" stroke="none" stroke-width="1" fill="none" fill-rule="evenodd" fill-opacity="0.85">
        <g id="1366" transform="translate(-1236.000000, -7.000000)" fill="#FFFFFF" fill-rule="nonzero">
            <g id="nav">
                <g id="social" transform="translate(1091.000000, 7.000000)">
                    <path d="M156.020824,5.34933185 C152.904566,5.34933185 150.39098,7.86291759 150.39098,10.9791759 C150.39098,14.0954343 152.904566,16.60902 156.020824,16.60902 C159.137082,16.60902 161.650668,14.0954343 161.650668,10.9791759 C161.650668,7.86291759 159.137082,5.34933185 156.020824,5.34933185 Z M156.020824,14.6393096 C154.007016,14.6393096 152.36069,12.9978842 152.36069,10.9791759 C152.36069,8.96046771 154.002116,7.31904232 156.020824,7.31904232 C158.039532,7.31904232 159.680958,8.96046771 159.680958,10.9791759 C159.680958,12.9978842 158.034633,14.6393096 156.020824,14.6393096 Z M163.194098,5.11904232 C163.194098,5.84910913 162.606125,6.43218263 161.880958,6.43218263 C161.150891,6.43218263 160.567817,5.84420935 160.567817,5.11904232 C160.567817,4.39387528 161.155791,3.805902 161.880958,3.805902 C162.606125,3.805902 163.194098,4.39387528 163.194098,5.11904232 Z M166.922829,6.45178174 C166.839532,4.69276169 166.437751,3.13463252 165.149109,1.85089087 C163.865367,0.56714922 162.307238,0.165367483 160.548218,0.0771714922 C158.735301,-0.0257238307 153.301448,-0.0257238307 151.48853,0.0771714922 C149.73441,0.160467706 148.176281,0.562249443 146.887639,1.84599109 C145.598998,3.12973274 145.202116,4.68786192 145.11392,6.44688196 C145.011024,8.25979955 145.011024,13.6936526 145.11392,15.5065702 C145.197216,17.2655902 145.598998,18.8237194 146.887639,20.107461 C148.176281,21.3912027 149.72951,21.7929844 151.48853,21.8811804 C153.301448,21.9840757 158.735301,21.9840757 160.548218,21.8811804 C162.307238,21.7978842 163.865367,21.3961024 165.149109,20.107461 C166.432851,18.8237194 166.834633,17.2655902 166.922829,15.5065702 C167.025724,13.6936526 167.025724,8.26469933 166.922829,6.45178174 Z M164.580735,17.4517817 C164.198552,18.4121381 163.458686,19.1520045 162.49343,19.5390869 C161.047996,20.1123608 157.618151,19.9800668 156.020824,19.9800668 C154.423497,19.9800668 150.988753,20.107461 149.548218,19.5390869 C148.587862,19.1569042 147.847996,18.4170379 147.460913,17.4517817 C146.887639,16.0063474 147.019933,12.5765033 147.019933,10.9791759 C147.019933,9.38184855 146.892539,5.94710468 147.460913,4.50657016 C147.843096,3.54621381 148.582962,2.80634744 149.548218,2.41926503 C150.993653,1.84599109 154.423497,1.97828508 156.020824,1.97828508 C157.618151,1.97828508 161.052895,1.85089087 162.49343,2.41926503 C163.453786,2.80144766 164.193653,3.54131403 164.580735,4.50657016 C165.154009,5.95200445 165.021715,9.38184855 165.021715,10.9791759 C165.021715,12.5765033 165.154009,16.0112472 164.580735,17.4517817 Z" id="instagram"></path>
                </g>
            </g>
        </g>
    </g>
</svg>