<?xml version="1.0" encoding="UTF-8"?>
<svg width="22px" height="22px" viewBox="0 0 22 22" version="1.1" xmlns="http://www.w3.org/2000/svg" xmlns:xlink="http://www.w3.org/1999/xlink">
    <!-- Generator: Sketch 51.2 (57519) - http://www.bohemiancoding.com/sketch -->
    <title>twitter</title>
    <desc>Created with Sketch.</desc>
    <defs></defs>
    <g id="Page-1" stroke="none" stroke-width="1" fill="none" fill-rule="evenodd" fill-opacity="0.85">
        <g id="1366" transform="translate(-1320.000000, -7.000000)" fill="#FFFFFF" fill-rule="nonzero">
            <g id="nav">
                <g id="social" transform="translate(1091.000000, 7.000000)">
                    <path d="M248.642857,0 L231.357143,0 C230.055804,0 229,1.05580357 229,2.35714286 L229,19.6428571 C229,20.9441964 230.055804,22 231.357143,22 L248.642857,22 C249.944196,22 251,20.9441964 251,19.6428571 L251,2.35714286 C251,1.05580357 249.944196,0 248.642857,0 Z M246.241518,7.79821429 C246.251339,7.93571429 246.251339,8.078125 246.251339,8.215625 C246.251339,12.4732143 243.010268,17.3790179 237.087946,17.3790179 C235.261161,17.3790179 233.566964,16.8486607 232.142857,15.9352679 C232.403125,15.9647321 232.653571,15.9745536 232.91875,15.9745536 C234.426339,15.9745536 235.811161,15.4638393 236.916071,14.5995536 C235.501786,14.5700893 234.313393,13.6419643 233.905804,12.3651786 C234.401786,12.4388393 234.848661,12.4388393 235.359375,12.30625 C233.886161,12.0066964 232.78125,10.7102679 232.78125,9.14375 L232.78125,9.10446429 C233.208482,9.34508929 233.709375,9.49241071 234.234821,9.51205357 C233.337559,8.9152234 232.799129,7.90843169 232.800893,6.83080357 C232.800893,6.23169643 232.958036,5.68169643 233.237946,5.20535714 C234.824107,7.15982143 237.205804,8.43660714 239.877232,8.57410714 C239.420536,6.38883929 241.055804,4.61607143 243.020089,4.61607143 C243.948214,4.61607143 244.783036,5.00401786 245.372321,5.63258929 C246.099107,5.49508929 246.796429,5.225 247.415179,4.85669643 C247.174554,5.603125 246.66875,6.23169643 246.000893,6.62946429 C246.649107,6.56071429 247.277679,6.37901786 247.857143,6.12857143 C247.420089,6.771875 246.870089,7.34151786 246.241518,7.79821429 Z" id="twitter"></path>
                </g>
            </g>
        </g>
    </g>
</svg>